<svg width="113" height="24" viewBox="0 0 113 24" fill="none" xmlns="http://www.w3.org/2000/svg">
    <rect width="112.523" height="24" fill="black" fill-opacity="0"/>
    <path fill-rule="evenodd" clip-rule="evenodd" d="M71.6637 5.92023C70.9321 5.92023 70.2636 5.95703 69.6764 6.02945C67.2497 6.32813 65.3823 7.69252 64.2765 9.97382C63.2689 12.0542 63.1904 14.1968 63.1904 14.8039C63.1904 15.4077 63.2689 17.5388 64.2792 19.6144C65.3849 21.8852 67.2503 23.2558 69.6737 23.5786C70.1865 23.6467 70.7948 23.6813 71.4822 23.6813C73.5838 23.6813 75.8045 23.3569 75.8263 23.3534L76.0754 23.3166V19.5358C76.0754 19.5358 73.6418 19.7061 72.4189 19.7061C70.8997 19.7061 70.2439 19.6057 69.9613 19.5211C68.2489 19.0096 68.0769 16.3275 68.0827 15.1993C68.0837 15.0644 68.0837 14.5433 68.0827 14.4098C68.0769 13.2539 68.2472 10.5189 69.9497 10.0901C70.4472 9.96473 71.3279 9.89853 72.4953 9.89853C73.7141 9.89853 76.0754 10.072 76.0754 10.072V6.27355L75.8285 6.23484C75.8089 6.23197 73.7897 5.92023 71.6637 5.92023Z" fill="white"/>
    <mask id="mask0" mask-type="alpha" maskUnits="userSpaceOnUse" x="0" y="0" width="113" height="24">
        <rect width="112.523" height="24" fill="black" fill-opacity="0"/>
        <path d="M0 0H112.523V24H0V0Z" fill="white"/>
    </mask>
    <g mask="url(#mask0)">
        <path fill-rule="evenodd" clip-rule="evenodd" d="M108.073 23.6813H112.523V0H108.073V23.6813Z" fill="white"/>
        <path fill-rule="evenodd" clip-rule="evenodd" d="M30.7836 12.6863H24.2043C24.3749 11.1492 24.7052 9.52735 27.4516 9.52735C30.6296 9.52735 30.7038 11.051 30.7754 12.5243C30.7782 12.5786 30.7806 12.6329 30.7836 12.6863ZM27.6065 5.81808H27.3896C25.5814 5.81808 23.0846 6.20455 21.4605 8.04441C20.0583 9.60232 19.2542 11.9336 19.2542 14.4414V15.0819C19.2542 15.4997 19.3114 17.6938 20.4447 19.8152C21.621 22.0176 23.5616 23.3294 26.0565 23.6086C26.4855 23.6569 26.9474 23.6813 27.4291 23.6813C30.4214 23.6813 33.3671 22.7693 33.4911 22.7302L33.6974 22.6654V19.2978C33.6974 19.2978 29.8133 19.735 28.5307 19.7762C24.6109 19.903 24.15 17.9077 24.1026 16.338H35.1005V13.3305C35.1005 10.8575 34.4687 9.02584 33.1712 7.73187C31.6089 6.1499 29.283 5.81808 27.6065 5.81808Z" fill="white"/>
        <path fill-rule="evenodd" clip-rule="evenodd" d="M56.4436 12.7086H49.8645C50.0349 11.1715 50.3655 9.54963 53.1116 9.54963C56.2898 9.54963 56.364 11.0733 56.4356 12.5466C56.4381 12.6008 56.4408 12.6552 56.4436 12.7086ZM53.2667 5.84036H53.0501C51.2417 5.84036 48.7452 6.22683 47.1208 8.06669C45.7185 9.6246 44.9142 11.9559 44.9142 14.4637V15.1042C44.9142 15.522 44.9717 17.7161 46.1047 19.8375C47.2813 22.0399 49.2218 23.3516 51.7164 23.6309C52.1455 23.6792 52.6077 23.7036 53.0893 23.7036C56.0816 23.7036 59.0273 22.7916 59.1516 22.7525L59.3577 22.6877V19.3201C59.3577 19.3201 55.4735 19.7573 54.1906 19.7984C50.2711 19.9253 49.8103 17.93 49.7625 16.3603H60.7608V13.3528C60.7608 10.8798 60.129 9.04812 58.8317 7.75415C57.2692 6.17218 54.9429 5.84036 53.2667 5.84036Z" fill="white"/>
        <path fill-rule="evenodd" clip-rule="evenodd" d="M100.823 12.7086H94.2433C94.4136 11.1715 94.7443 9.54963 97.4905 9.54963C100.669 9.54963 100.743 11.0733 100.814 12.5466C100.817 12.6008 100.82 12.6552 100.823 12.7086ZM97.6456 5.84036H97.4289C95.6205 5.84036 93.124 6.22683 91.4998 8.06669C90.0976 9.6246 89.2933 11.9559 89.2933 14.4637V15.1042C89.2933 15.522 89.3508 17.7161 90.4841 19.8375C91.6606 22.0399 93.6009 23.3516 96.0953 23.6309C96.5246 23.6792 96.9866 23.7036 97.4681 23.7036C100.46 23.7036 103.406 22.7916 103.53 22.7525L103.737 22.6877V19.3201C103.737 19.3201 99.8524 19.7573 98.5695 19.7984C94.6503 19.9253 94.1891 17.93 94.1417 16.3603H105.14V13.3528C105.14 10.8798 104.508 9.04812 103.21 7.75415C101.648 6.17218 99.3217 5.84036 97.6456 5.84036Z" fill="white"/>
        <path fill-rule="evenodd" clip-rule="evenodd" d="M38.0336 23.7036H42.4846V0H38.0336V23.7036Z" fill="white"/>
        <rect width="16.7651" height="24" fill="black" fill-opacity="0"/>
        <path fill-rule="evenodd" clip-rule="evenodd" d="M6.00515 13.2315C7.12969 13.6695 10.1961 14.8679 10.8696 15.1506C11.3228 15.3406 11.6606 15.6334 11.8739 16.0213L11.9579 16.174H16.7651L16.7245 15.8278C16.2862 12.0633 13.8235 11.1219 11.4417 10.2115C10.6423 9.90624 9.2166 9.39836 8.17548 9.02766C7.59844 8.82196 7.14251 8.65968 7.02392 8.61395C5.64678 8.08009 4.51862 7.52019 4.66392 6.06839C4.78688 4.8388 5.76882 4.33394 8.05229 4.32558C10.3603 4.33068 15.0235 4.73802 15.0704 4.74208L15.3844 4.76989V0.952989L15.1658 0.893557C15.1339 0.885192 10.7257 0.0179253 7.99204 0.000318672L7.87913 0C5.89255 0 4.24476 0.356514 2.98091 1.05982C1.00276 2.16052 3.05176e-05 4.06626 3.05176e-05 6.72303C3.05176e-05 9.64461 1.79588 11.5909 6.00515 13.2315Z" fill="white"/>
        <path fill-rule="evenodd" clip-rule="evenodd" d="M11.9224 18.2356C11.3896 19.3974 9.90306 19.5077 8.40487 19.5077H8.22473C5.83395 19.5077 0.693945 18.9577 0.642442 18.9521L0.322449 18.9176V22.9833L0.542123 23.0405C0.578889 23.0504 4.8656 24 8.00099 24C13.2786 24 16.2897 22.008 16.7324 18.2356H11.9224Z" fill="white"/>
        <path fill-rule="evenodd" clip-rule="evenodd" d="M83.5075 9.75349H87.4651V5.99244H83.5075V-3.05176e-05H78.9969V16.1927H83.5075V9.75349Z" fill="white"/>
        <path fill-rule="evenodd" clip-rule="evenodd" d="M85.5862 19.7279C84.1837 19.7279 83.5706 19.2956 83.5128 18.2487H78.9986C79.0365 21.9206 81.4282 23.4451 83.6693 23.6442C83.832 23.6587 84.0136 23.6658 84.2084 23.6658C85.5856 23.6658 87.6101 23.2467 87.6101 23.2467V19.5989C87.6101 19.5989 85.9939 19.7279 85.5862 19.7279Z" fill="white"/>
    </g>
</svg>
