<svg width="22" height="22" viewBox="0 0 22 22" fill="none" xmlns="http://www.w3.org/2000/svg">
<path d="M16.153 14.3293L16.153 14.3293L16.159 14.3313C17.4716 14.7652 18.8539 14.9853 20.2632 14.9853C20.9446 14.9853 21.5 15.5407 21.5 16.2221V20.2632C21.5 20.9446 20.9446 21.5 20.2632 21.5C9.36678 21.5 0.5 12.6332 0.5 1.73684C0.5 1.05539 1.05539 0.5 1.73684 0.5H5.7895C6.47095 0.5 7.02634 1.05539 7.02634 1.73684C7.02634 3.14274 7.24723 4.52469 7.68125 5.84137C7.82261 6.29782 7.70272 6.77752 7.37382 7.10722L7.34924 7.13186L7.32831 7.15967L5.49307 9.5982L5.30185 9.85228L5.45087 10.1332C7.00782 13.068 8.91415 14.9726 11.8658 16.5475L12.1476 16.6978L12.4025 16.5053L14.9001 14.6191L14.9295 14.5969L14.9553 14.5706C15.2166 14.3049 15.7082 14.176 16.153 14.3293Z" stroke="white"/>
</svg>
