<svg width="28" height="24" viewBox="0 0 28 24" fill="none" xmlns="http://www.w3.org/2000/svg">
<path fill-rule="evenodd" clip-rule="evenodd" d="M24.7015 3.79431C25.8881 3.0455 26.7986 1.85815 27.2259 0.443738C26.1149 1.13881 24.8872 1.64149 23.5774 1.91362C22.5321 0.734942 21.0382 0 19.3849 0C16.2129 0 13.6425 2.7127 13.6425 6.05807C13.6425 6.53301 13.6902 6.99581 13.7888 7.43782C9.01614 7.18475 4.78418 4.77539 1.94917 1.10761C1.45448 2.00549 1.1718 3.0455 1.1718 4.15485C1.1718 6.25567 2.18583 8.11036 3.72742 9.1989C2.7857 9.1677 1.89987 8.8921 1.12414 8.44143V8.51596C1.12414 11.4523 3.10289 13.9015 5.73411 14.4562C5.25092 14.5983 4.74473 14.6694 4.21882 14.6694C3.84903 14.6694 3.48747 14.633 3.13905 14.5619C3.86876 16.9678 5.99049 18.7219 8.50502 18.7687C6.53777 20.3946 4.06104 21.3618 1.37066 21.3618C0.907202 21.3618 0.448671 21.3358 0 21.2786C2.54247 22.9964 5.56154 24 8.80578 24C19.3734 24 25.1486 14.7682 25.1486 6.76181C25.1486 6.49834 25.1453 6.2366 25.1338 5.97833C26.2563 5.12379 27.2325 4.05604 28 2.84096C26.9695 3.32284 25.8618 3.64871 24.7015 3.79431Z" fill="white"/>
</svg>
