<svg width="32" height="18" viewBox="0 0 32 18" fill="none" xmlns="http://www.w3.org/2000/svg">
<path fill-rule="evenodd" clip-rule="evenodd" d="M17.5693 17.9248C17.5693 17.9248 18.1469 17.8615 18.4427 17.5482C18.7134 17.2612 18.704 16.7195 18.704 16.7195C18.704 16.7195 18.668 14.1903 19.8591 13.8168C21.0329 13.4496 22.5402 16.2628 24.1397 17.3445C25.348 18.1624 26.2651 17.9834 26.2651 17.9834L30.5395 17.9248C30.5395 17.9248 32.7745 17.789 31.7149 16.056C31.6272 15.914 31.0967 14.7736 28.5377 12.4311C25.8566 9.97895 26.2166 10.3755 29.4439 6.13336C31.4097 3.55008 32.1954 1.97295 31.9497 1.29859C31.7165 0.653538 30.2703 0.824831 30.2703 0.824831L25.4591 0.85415C25.4591 0.85415 25.1023 0.806312 24.8378 0.962173C24.5795 1.11495 24.412 1.47142 24.412 1.47142C24.412 1.47142 23.6514 3.46983 22.6356 5.17041C20.493 8.75675 19.6369 8.94657 19.2863 8.72435C18.4708 8.2043 18.6743 6.63797 18.6743 5.52534C18.6743 2.04857 19.2096 0.599526 17.6335 0.224535C17.1107 0.0995374 16.7257 0.0177497 15.3875 0.0038611C13.6706 -0.0131139 12.2182 0.0100339 11.3949 0.40663C10.8471 0.670513 10.4245 1.26001 10.6828 1.29396C11.0005 1.33562 11.7205 1.48531 12.1024 1.99764C12.5954 2.65967 12.5782 4.1442 12.5782 4.1442C12.5782 4.1442 12.8614 8.23671 11.9161 8.74441C11.2682 9.09317 10.3792 8.38177 8.46815 5.12721C7.48995 3.46058 6.75121 1.61802 6.75121 1.61802C6.75121 1.61802 6.60878 1.27389 6.35367 1.08871C6.04534 0.864953 5.61493 0.79551 5.61493 0.79551L1.04321 0.824831C1.04321 0.824831 0.356125 0.843349 0.104141 1.1381C-0.119672 1.39889 0.086924 1.94055 0.086924 1.94055C0.086924 1.94055 3.66636 10.1981 7.72002 14.36C11.4372 18.1748 15.6567 17.9248 15.6567 17.9248H17.5693Z" fill="white"/>
</svg>
