<svg width="28" height="20" viewBox="0 0 28 20" fill="none" xmlns="http://www.w3.org/2000/svg">
<path fill-rule="evenodd" clip-rule="evenodd" d="M11.1364 14.2208V5.77919L18.4545 10.0002L11.1364 14.2208ZM27.4149 3.12306C27.0929 1.89371 26.144 0.925645 24.9394 0.597097C22.7559 0 14 0 14 0C14 0 5.24411 0 3.06059 0.597097C1.85595 0.925645 0.907136 1.89371 0.585136 3.12306C5.96046e-08 5.35113 0 10 0 10C0 10 5.96046e-08 14.6487 0.585136 16.8769C0.907136 18.1063 1.85595 19.0744 3.06059 19.4031C5.24411 20 14 20 14 20C14 20 22.7559 20 24.9394 19.4031C26.144 19.0744 27.0929 18.1063 27.4149 16.8769C28 14.6487 28 10 28 10C28 10 28 5.35113 27.4149 3.12306Z" fill="white"/>
</svg>
