<svg width="24" height="24" fill="none" xmlns="http://www.w3.org/2000/svg"><path d="M0 0h24v24H0z"/><path d="M0 0h24v24H0z"/><path d="M0 0h24v24H0z"/><path d="M17.377 0H6.623A6.63 6.63 0 0 0 0 6.623v10.754A6.63 6.63 0 0 0 6.623 24h10.754A6.63 6.63 0 0 0 24 17.377V6.623A6.63 6.63 0 0 0 17.377 0zm4.494 17.377a4.499 4.499 0 0 1-4.494 4.494H6.623a4.499 4.499 0 0 1-4.494-4.494V6.623A4.499 4.499 0 0 1 6.623 2.13h10.754a4.499 4.499 0 0 1 4.494 4.494v10.754z" fill="#fff"/><path d="M12 6.461a5.545 5.545 0 0 0-5.538 5.54A5.545 5.545 0 0 0 12 17.537 5.545 5.545 0 0 0 17.538 12 5.545 5.545 0 0 0 12 6.461zm0 9.17A3.635 3.635 0 0 1 8.369 12 3.636 3.636 0 0 1 12 8.368 3.636 3.636 0 0 1 15.631 12 3.635 3.635 0 0 1 12 15.631zm6-11.016A1.39 1.39 0 0 0 16.615 6c0 .364.149.721.407.98.257.256.614.405.978.405.365 0 .721-.149.98-.406.257-.258.405-.615.405-.979a1.39 1.39 0 0 0-.406-.98A1.39 1.39 0 0 0 18 4.616z" fill="#fff"/></svg>