<svg width="113" height="24" fill="none" xmlns="http://www.w3.org/2000/svg"><path d="M0 0h112.523v24H0z"/><path fill-rule="evenodd" clip-rule="evenodd" d="M71.664 5.92c-.732 0-1.4.037-1.988.11-2.426.298-4.294 1.663-5.4 3.944-1.007 2.08-1.086 4.223-1.086 4.83 0 .604.079 2.735 1.09 4.81 1.105 2.271 2.97 3.642 5.394 3.965.512.068 1.12.102 1.808.102 2.102 0 4.323-.324 4.344-.328l.25-.036v-3.781s-2.434.17-3.657.17c-1.52 0-2.175-.1-2.458-.185-1.712-.511-1.884-3.194-1.878-4.322v-.79c-.006-1.155.164-3.89 1.867-4.319.497-.125 1.378-.191 2.545-.191 1.22 0 3.58.173 3.58.173V6.274l-.246-.04c-.02-.002-2.04-.314-4.165-.314z" fill="#fff"/><mask id="a" maskUnits="userSpaceOnUse" x="0" y="0" width="113" height="24"><path fill="#000" fill-opacity="0" d="M0 0h112.523v24H0z"/><path d="M0 0h112.523v24H0V0z" fill="#fff"/></mask><g mask="url(#a)"><path fill-rule="evenodd" clip-rule="evenodd" d="M108.073 23.681h4.45V0h-4.45v23.681zM30.784 12.686h-6.58c.17-1.537.501-3.159 3.248-3.159 3.178 0 3.252 1.524 3.323 2.997l.009.162zm-3.177-6.868h-.217c-1.809 0-4.305.387-5.93 2.226-1.402 1.558-2.206 3.89-2.206 6.397v.64c0 .419.057 2.613 1.19 4.734 1.177 2.203 3.118 3.514 5.613 3.794.428.048.89.072 1.372.072 2.992 0 5.938-.912 6.062-.95l.206-.066v-3.367s-3.884.437-5.166.478c-3.92.127-4.381-1.868-4.428-3.438H35.1V13.33c0-2.473-.631-4.304-1.929-5.598-1.562-1.582-3.888-1.914-5.564-1.914zm28.837 6.891h-6.58c.17-1.537.502-3.16 3.248-3.16 3.178 0 3.252 1.524 3.324 2.998l.008.162zM53.267 5.84h-.217c-1.808 0-4.305.387-5.93 2.227-1.401 1.558-2.206 3.889-2.206 6.397v.64c0 .418.058 2.612 1.19 4.733 1.177 2.203 3.118 3.515 5.612 3.794.43.048.892.073 1.373.073 2.993 0 5.938-.912 6.063-.951l.206-.065V19.32s-3.884.437-5.167.478c-3.92.127-4.38-1.868-4.428-3.438H60.76v-3.007c0-2.473-.632-4.305-1.93-5.599-1.562-1.582-3.888-1.914-5.564-1.914zm47.556 6.869h-6.58c.17-1.537.501-3.16 3.248-3.16 3.178 0 3.252 1.524 3.323 2.998l.009.162zM97.646 5.84h-.217c-1.808 0-4.305.387-5.93 2.227-1.401 1.558-2.206 3.889-2.206 6.397v.64c0 .418.058 2.612 1.191 4.733 1.177 2.203 3.117 3.515 5.611 3.794.43.048.892.073 1.373.073 2.992 0 5.938-.912 6.062-.951l.207-.065V19.32s-3.885.437-5.167.478c-3.92.127-4.38-1.868-4.428-3.438h10.998v-3.007c0-2.473-.632-4.305-1.93-5.599-1.562-1.582-3.888-1.914-5.564-1.914zM38.034 23.704h4.45V0h-4.45v23.704z" fill="#fff"/><path d="M0 0h16.765v24H0z"/><path fill-rule="evenodd" clip-rule="evenodd" d="M6.005 13.232c1.125.438 4.191 1.636 4.865 1.919.453.19.79.482 1.004.87l.084.153h4.807l-.04-.346c-.439-3.765-2.902-4.706-5.283-5.617-.8-.305-2.225-.813-3.267-1.183-.577-.206-1.032-.368-1.151-.414-1.377-.534-2.505-1.094-2.36-2.546.123-1.23 1.105-1.734 3.388-1.742 2.308.005 6.972.412 7.018.416l.314.028V.953l-.218-.06C15.134.886 10.726.019 7.992 0h-.113C5.893 0 4.245.357 2.981 1.06 1.003 2.16 0 4.066 0 6.723c0 2.922 1.796 4.868 6.005 6.509zm5.917 5.004c-.532 1.161-2.019 1.272-3.517 1.272h-.18c-2.391 0-7.531-.55-7.583-.556l-.32-.034v4.065l.22.058c.037.01 4.324.959 7.459.959 5.278 0 8.289-1.992 8.731-5.764h-4.81zm71.585-8.483h3.958v-3.76h-3.958V0h-4.51v16.193h4.51v-6.44zm2.079 9.975c-1.402 0-2.015-.432-2.073-1.48h-4.514c.038 3.673 2.43 5.197 4.67 5.396.163.015.345.022.54.022 1.377 0 3.401-.42 3.401-.42V19.6s-1.616.129-2.024.129z" fill="#fff"/></g></svg>