<svg width="22" height="22" fill="none" xmlns="http://www.w3.org/2000/svg"><path d="M16.153 14.33l.006.001c1.313.434 2.695.654 4.104.654a1.24 1.24 0 0 1 1.237 1.237v4.041c0 .682-.555 1.237-1.237 1.237C9.367 21.5.5 12.633.5 1.737.5 1.055 1.055.5 1.737.5H5.79c.681 0 1.236.555 1.236 1.237 0 1.406.221 2.788.655 4.104a1.25 1.25 0 0 1-.307 1.266l-.025.025-.02.028-1.836 2.438-.191.254.149.281c1.557 2.935 3.463 4.84 6.415 6.415l.282.15.255-.193L14.9 14.62l.03-.022.025-.026c.262-.266.753-.395 1.198-.242z" stroke="#fff"/></svg>