<svg width="28" height="24" fill="none" xmlns="http://www.w3.org/2000/svg"><path fill-rule="evenodd" clip-rule="evenodd" d="M24.701 3.794a6.014 6.014 0 0 0 2.525-3.35 11.14 11.14 0 0 1-3.649 1.47C22.532.734 21.038 0 19.385 0c-3.172 0-5.743 2.713-5.743 6.058 0 .475.048.938.147 1.38-4.773-.253-9.005-2.663-11.84-6.33a6.299 6.299 0 0 0-.777 3.047c0 2.1 1.014 3.955 2.555 5.044a5.539 5.539 0 0 1-2.603-.758v.075c0 2.936 1.979 5.386 4.61 5.94-.483.142-.99.213-1.515.213a5.4 5.4 0 0 1-1.08-.107c.73 2.406 2.851 4.16 5.366 4.207-1.967 1.626-4.444 2.593-7.134 2.593-.464 0-.922-.026-1.371-.083C2.542 22.996 5.562 24 8.806 24c10.567 0 16.343-9.232 16.343-17.238 0-.264-.004-.525-.015-.784A12.008 12.008 0 0 0 28 2.841a11.01 11.01 0 0 1-3.299.953z" fill="#fff"/></svg>