<svg width="32" height="18" fill="none" xmlns="http://www.w3.org/2000/svg"><path fill-rule="evenodd" clip-rule="evenodd" d="M17.57 17.925s.577-.064.873-.377c.27-.287.261-.828.261-.828s-.036-2.53 1.155-2.903c1.174-.367 2.681 2.446 4.28 3.527 1.209.818 2.126.64 2.126.64l4.274-.06s2.236-.135 1.176-1.868c-.088-.142-.618-1.282-3.177-3.625-2.681-2.452-2.321-2.055.906-6.298C31.41 3.55 32.195 1.973 31.95 1.3c-.233-.645-1.68-.474-1.68-.474l-4.81.03s-.358-.049-.622.107c-.259.153-.426.51-.426.51s-.76 1.998-1.776 3.698c-2.143 3.587-3 3.777-3.35 3.554-.815-.52-.612-2.086-.612-3.199 0-3.476.536-4.925-1.04-5.3C17.11.1 16.726.018 15.387.004c-1.716-.017-3.169.006-3.992.403-.548.264-.97.853-.712.887.318.042 1.037.191 1.42.704.492.662.475 2.146.475 2.146s.283 4.093-.662 4.6c-.648.35-1.537-.362-3.448-3.617-.978-1.666-1.717-3.509-1.717-3.509s-.142-.344-.397-.53c-.309-.223-.74-.292-.74-.292l-4.57.029s-.688.018-.94.313c-.224.26-.017.803-.017.803s3.58 8.257 7.633 12.419c3.717 3.815 7.937 3.565 7.937 3.565h1.912z" fill="#fff"/></svg>